<?xml version="1.0" standalone="no"?>
<!DOCTYPE svg PUBLIC "-//W3C//DTD SVG 20010904//EN"
 "http://www.w3.org/TR/2001/REC-SVG-20010904/DTD/svg10.dtd">
<svg version="1.0" xmlns="http://www.w3.org/2000/svg"
 width="512.000000pt" height="512.000000pt" viewBox="0 0 512.000000 512.000000"
 preserveAspectRatio="xMidYMid meet">

<g transform="translate(0.000000,512.000000) scale(0.100000,-0.100000)"
fill="#000000" stroke="none">
<path d="M2450 4634 c-200 -36 -366 -114 -484 -226 -38 -37 -46 -51 -46 -81 0
-48 28 -77 74 -77 28 0 48 11 98 55 72 63 194 127 288 152 43 12 103 17 180
17 77 0 137 -5 180 -17 94 -25 216 -89 288 -152 71 -62 115 -72 152 -35 39 39
30 85 -28 139 -154 143 -342 219 -562 226 -63 2 -126 2 -140 -1z"/>
<path d="M799 4467 c-121 -45 -185 -174 -147 -299 14 -48 76 -121 118 -138
l30 -12 0 -1173 0 -1172 -56 -38 c-159 -109 -264 -314 -264 -515 0 -412 397
-722 794 -620 180 46 335 169 413 330 23 47 48 113 54 148 l13 62 698 0 699 0
24 25 c16 15 25 36 25 55 0 19 -9 40 -25 55 l-24 25 -698 0 -698 0 -12 62
c-33 170 -170 346 -333 427 -110 54 -209 75 -320 68 -47 -3 -95 -9 -107 -13
l-23 -6 0 394 c0 236 4 418 11 454 38 214 235 408 449 444 45 7 409 10 1180 8
l1115 -3 66 -26 c98 -38 154 -74 222 -143 l60 -61 -104 -5 c-122 -6 -161 -22
-218 -86 -87 -99 -82 -224 14 -319 65 -66 99 -75 269 -75 l136 0 0 -80 0 -80
-957 0 c-942 0 -959 1 -1003 21 -29 13 -95 70 -191 165 -189 186 -227 206
-401 212 -114 4 -117 4 -142 -21 -34 -34 -34 -79 -1 -112 22 -23 32 -25 117
-25 133 -1 154 -12 329 -186 121 -119 159 -150 215 -176 l69 -33 983 -3 982
-2 0 -131 0 -130 -37 8 c-21 4 -83 8 -138 8 -271 -1 -501 -165 -603 -433 -24
-61 -26 -80 -26 -212 0 -132 2 -151 26 -212 37 -99 85 -174 153 -243 74 -75
155 -125 260 -161 69 -24 96 -28 195 -28 101 -1 126 3 204 28 211 69 376 244
431 454 19 77 22 215 6 297 -29 144 -147 322 -261 396 l-49 32 -3 471 -4 471
-27 80 c-38 116 -91 199 -182 290 -91 91 -174 143 -290 183 l-80 27 -1134 3
c-1217 3 -1208 3 -1342 -47 -78 -30 -173 -92 -241 -159 l-58 -56 0 541 0 541
30 12 c68 28 130 129 130 212 0 82 -59 176 -134 215 -41 21 -142 27 -187 10z
m136 -172 c50 -49 15 -135 -55 -135 -41 0 -80 39 -80 80 0 41 39 80 80 80 19
0 40 -9 55 -25z m3209 -1678 c3 -13 8 -49 12 -80 l7 -57 -137 0 c-132 0 -138
1 -161 25 -16 15 -25 36 -25 55 0 19 9 40 25 55 23 24 30 25 148 25 122 0 125
-1 131 -23z m-2909 -1032 c172 -45 305 -179 350 -352 65 -249 -94 -511 -350
-578 -251 -65 -513 94 -580 350 -89 342 238 669 580 580z m2880 0 c190 -50
330 -207 358 -401 35 -238 -121 -467 -358 -529 -251 -65 -513 94 -580 350 -89
343 237 669 580 580z"/>
<path d="M1020 1424 c-143 -52 -230 -184 -217 -329 11 -116 67 -201 169 -256
57 -31 70 -34 148 -34 79 0 90 3 150 36 284 156 188 579 -135 596 -48 2 -84
-2 -115 -13z m163 -158 c104 -43 128 -175 47 -256 -66 -66 -156 -67 -221 -1
-124 123 13 325 174 257z"/>
<path d="M3925 1431 c-92 -24 -173 -90 -215 -176 -35 -73 -35 -199 0 -270 31
-64 91 -124 155 -155 71 -35 197 -35 270 0 64 31 124 91 155 155 35 73 35 199
0 270 -32 64 -92 124 -155 154 -54 25 -156 36 -210 22z m138 -165 c103 -43
128 -177 48 -257 -65 -65 -157 -65 -222 0 -124 123 13 325 174 257z"/>
<path d="M2455 4311 c-152 -33 -315 -142 -315 -210 0 -41 38 -81 79 -81 19 0
44 13 73 37 23 20 72 50 108 67 59 28 74 31 160 31 86 0 101 -3 160 -31 36
-17 85 -47 108 -67 53 -44 92 -48 127 -12 39 39 34 79 -17 127 -96 88 -217
138 -353 143 -49 2 -108 0 -130 -4z"/>
<path d="M2480 3987 c-49 -16 -133 -102 -148 -153 -28 -94 -8 -169 63 -239 51
-52 102 -75 165 -75 124 0 240 116 240 240 0 63 -23 114 -75 165 -70 71 -152
91 -245 62z m135 -172 c16 -15 25 -36 25 -55 0 -19 -9 -40 -25 -55 -49 -50
-135 -15 -135 55 0 41 39 80 80 80 19 0 40 -9 55 -25z"/>
<path d="M1145 2535 c-16 -15 -25 -36 -25 -55 0 -19 9 -40 25 -55 15 -16 36
-25 55 -25 19 0 40 9 55 25 16 15 25 36 25 55 0 19 -9 40 -25 55 -15 16 -36
25 -55 25 -19 0 -40 -9 -55 -25z"/>
</g>
</svg>
